<svg xmlns="http://www.w3.org/2000/svg" xmlns:xlink="http://www.w3.org/1999/xlink" width="500" zoomAndPan="magnify" viewBox="0 0 375 374.999991" height="500" preserveAspectRatio="xMidYMid meet" version="1.0"><defs><g/><clipPath id="d5be4fce42"><path d="M 158.90625 157.324219 L 207.65625 157.324219 L 207.65625 217.324219 L 158.90625 217.324219 Z M 158.90625 157.324219 " clip-rule="nonzero"/></clipPath><clipPath id="75437c969b"><path d="M 137.28125 154.964844 L 169 154.964844 L 169 220.1875 L 137.28125 220.1875 Z M 137.28125 154.964844 " clip-rule="nonzero"/></clipPath><clipPath id="2c0d8797ec"><path d="M 198 154.964844 L 229.53125 154.964844 L 229.53125 220.1875 L 198 220.1875 Z M 198 154.964844 " clip-rule="nonzero"/></clipPath></defs><g clip-path="url(#d5be4fce42)"><path fill="#7ab730" d="M 191.785156 173.210938 C 191.835938 173.605469 191.867188 174 191.855469 174.382812 L 191.855469 175.40625 L 191.058594 174.777344 C 190.914062 174.667969 190.765625 174.554688 190.601562 174.445312 C 189.972656 173.988281 189.304688 173.605469 188.648438 173.371094 C 188.648438 173.371094 188.03125 174.140625 189.335938 175.789062 C 190.441406 177.195312 190.15625 179.199219 188.457031 179.191406 C 188.628906 179.980469 188.851562 180.972656 189.214844 182.003906 C 189.46875 182.042969 189.722656 182.0625 189.972656 182.0625 C 191.25 182.0625 192.414062 181.488281 193.3125 180.617188 C 194.234375 179.726562 194.902344 178.523438 195.175781 177.296875 C 195.265625 176.894531 195.308594 176.488281 195.308594 176.09375 L 195.308594 175.140625 L 196.085938 175.6875 C 196.796875 176.183594 198.75 178.582031 199 182.519531 L 199.023438 182.480469 C 199.324219 181.902344 199.609375 181.316406 199.863281 180.6875 L 200.265625 179.675781 L 200.761719 180.648438 C 201.796875 182.660156 202.199219 184.675781 202.160156 186.699219 L 203.425781 185.351562 L 204.042969 184.695312 L 204.273438 185.566406 C 205.003906 188.347656 205.09375 191.363281 204.640625 194.25 C 204.183594 197.144531 203.191406 199.917969 201.753906 202.203125 C 202.039062 202.457031 202.28125 202.761719 202.472656 203.105469 C 202.847656 203.773438 203.03125 204.59375 203 205.503906 C 202.988281 205.675781 202.980469 205.847656 202.957031 206.019531 C 203.210938 205.695312 203.566406 205.160156 204.195312 204.988281 C 203.65625 205.765625 203.707031 206.574219 203.738281 206.929688 C 204.839844 206.453125 205.488281 205.632812 205.589844 204.664062 C 205.914062 205.523438 205.589844 207.75 204.457031 208.648438 C 205.609375 208.601562 206.277344 208.945312 206.691406 209.367188 C 205.78125 209.347656 204.8125 209.308594 204.324219 209.925781 L 204.566406 210.339844 C 205.851562 210.949219 206.996094 212.082031 207.949219 213.71875 C 205.417969 211.574219 203.503906 210.796875 202.078125 210.632812 C 203.242188 211.089844 203.992188 212.292969 203.929688 212.972656 C 202.5625 211.515625 200.78125 211.351562 199.648438 211.542969 C 200.558594 211.890625 201.078125 213.296875 200.855469 214.015625 C 200.335938 213.101562 199.75 212.089844 198.40625 211.96875 C 197.371094 211.878906 197.046875 212.515625 197.332031 213.761719 C 197.554688 214.742188 197.523438 215.9375 197.148438 216.523438 C 197.121094 214.449219 195.539062 213.082031 194.386719 212.464844 C 195.003906 213.144531 195.390625 214.539062 195.265625 215.613281 C 194.648438 213.214844 193.355469 212.335938 192.472656 211.847656 C 193.476562 212.921875 194.03125 215.746094 193.839844 216.613281 C 193.679688 216.046875 192.070312 211.199219 190.792969 212.636719 C 190.449219 213.023438 190.378906 213.578125 190.371094 214.09375 C 190.339844 214.964844 190.226562 215.886719 189.742188 217.058594 C 189.84375 214.144531 189.671875 213.101562 189.214844 212.636719 C 188.265625 211.644531 187.058594 214.386719 186.929688 215.328125 C 186.542969 214.226562 186.929688 213.101562 187.230469 212.75 C 185.90625 213.398438 184.136719 215.785156 183.367188 217.230469 C 184.085938 213.769531 185.894531 212.34375 186.707031 211.777344 C 185.765625 211.675781 184.519531 212.425781 183.941406 212.980469 C 184.367188 211.847656 184.882812 211.28125 185.601562 210.796875 C 182.292969 211.28125 180.675781 215.015625 180.085938 215.925781 C 180.25 214.265625 181.160156 212.808594 182.070312 211.707031 C 179.964844 211.867188 178.253906 213.832031 177.789062 214.46875 C 178.277344 213.042969 179.214844 211.9375 179.894531 211.515625 C 176.230469 212.234375 174.703125 216.160156 174.511719 217.058594 C 174.15625 214.367188 176.230469 212.617188 177.011719 211.605469 C 175.097656 211.636719 173.628906 213.589844 173.054688 214.488281 C 173.15625 213.609375 174.097656 212.253906 175.097656 211.636719 C 173.609375 212.292969 171.859375 212.457031 170.917969 213.902344 C 170.492188 214.539062 170.21875 215.136719 169.683594 216.371094 C 169.734375 214.410156 170.683594 213.253906 171.050781 212.828125 C 168.761719 213.425781 166.898438 216.027344 166.476562 216.886719 C 166.929688 214.875 168.46875 213.042969 169.136719 212.507812 C 165.402344 211.566406 162.609375 215.816406 162.609375 215.816406 C 163.410156 213.832031 164.53125 212.738281 165.65625 212.140625 C 163.085938 210.289062 159.339844 213.992188 159.339844 213.992188 C 160.414062 212.171875 161.605469 211.492188 162.355469 211.039062 C 161.40625 210.574219 159.9375 210.847656 158.914062 211.28125 C 159.554688 210.472656 160.566406 210.179688 161.304688 210.066406 C 162.234375 209.925781 163.003906 210.109375 163.914062 210.066406 C 162.496094 208.40625 159.90625 209.5 159.136719 209.957031 C 160.179688 208.671875 161.425781 208.054688 162.417969 207.921875 C 161.828125 207.40625 161.578125 206.847656 161.535156 206.261719 C 162.640625 207.011719 163.449219 206.910156 164.300781 206.910156 C 163.683594 205.96875 163.785156 204.734375 164.238281 204.378906 C 164.320312 205.714844 165.292969 206.464844 165.886719 206.839844 C 165.886719 206.726562 165.886719 206.617188 165.898438 206.515625 C 165.96875 205.453125 166.332031 204.5 167.113281 203.863281 C 167.203125 203.792969 167.296875 203.722656 167.40625 203.652344 C 166.070312 201.101562 165.515625 198.660156 165.472656 196.394531 C 165.433594 193.824219 166.050781 191.484375 166.960938 189.453125 C 167.273438 188.753906 167.617188 188.085938 168.011719 187.429688 C 168.761719 186.164062 169.835938 184.9375 170.917969 183.683594 C 172.800781 181.527344 174.734375 179.3125 174.875 176.964844 C 174.835938 176.539062 174.792969 176.082031 174.742188 175.628906 C 174.511719 173.664062 174.289062 171.699219 174.964844 169.210938 C 175.644531 166.710938 176.746094 165.011719 178.054688 163.949219 C 178.417969 163.65625 178.792969 163.414062 179.167969 163.210938 C 179.308594 162.371094 178.882812 161.925781 178.527344 161.558594 C 177.921875 160.933594 177.433594 160.4375 178.234375 159.355469 C 179.621094 157.492188 181.390625 158.078125 183.144531 158.65625 L 183.425781 158.746094 C 183.941406 158.332031 184.488281 158 184.996094 157.816406 L 185.085938 157.777344 L 185.175781 157.777344 C 185.175781 157.777344 186.007812 157.777344 186.707031 157.917969 C 187.050781 157.988281 187.402344 158.210938 187.675781 158.492188 C 187.941406 158.777344 188.132812 159.140625 188.164062 159.496094 L 188.265625 160.679688 C 189.257812 160.871094 190.085938 161.246094 190.359375 161.550781 C 190.734375 161.976562 191.160156 162.449219 191.53125 162.925781 C 191.917969 163.421875 192.261719 163.929688 192.453125 164.394531 C 192.71875 165.023438 192.535156 165.648438 192.121094 166.195312 C 191.90625 166.480469 191.613281 166.742188 191.300781 166.976562 C 190.988281 167.199219 190.652344 167.390625 190.320312 167.53125 C 190.015625 167.664062 189.710938 167.742188 189.417969 167.785156 C 190.683594 169.375 191.59375 171.316406 191.835938 173.1875 Z M 179.4375 165.679688 C 179.4375 165.679688 176.644531 168.796875 180.601562 174.574219 C 176.847656 172.691406 176.402344 166.953125 179.4375 165.679688 Z M 177.070312 176.945312 C 177.980469 180.535156 177.140625 184.746094 173.570312 189.402344 C 178.539062 185.527344 179.882812 182.53125 177.070312 176.945312 Z M 172.113281 187.003906 C 172.113281 187.003906 171.464844 188.492188 172.113281 191.089844 C 171.394531 191.820312 170.039062 194.714844 171.847656 199.269531 C 169.9375 197.445312 168.953125 190.960938 172.113281 187.003906 Z M 202.535156 192.113281 C 202.535156 192.113281 201.128906 197.164062 198.050781 200.160156 C 201.441406 198.4375 203.050781 196.050781 202.535156 192.113281 Z M 166.921875 192.476562 C 166.605469 193.703125 166.425781 194.996094 166.445312 196.363281 C 166.484375 198.5 167.011719 200.808594 168.296875 203.234375 C 168.378906 203.214844 168.46875 203.183594 168.558594 203.175781 C 169.085938 203.0625 169.644531 203.042969 170.21875 203.105469 C 168.558594 201.179688 168.5 198.8125 168.5 198.8125 C 169.5 201.28125 172.890625 203.914062 172.890625 203.914062 C 173.609375 204.246094 174.308594 204.671875 174.976562 205.148438 C 175.835938 205.757812 176.636719 206.464844 177.324219 207.214844 C 176.988281 204.914062 174.441406 203.085938 174.441406 203.085938 C 176.050781 203.277344 177.375 204.804688 178.09375 206.070312 C 179.460938 203.730469 180.328125 202.820312 181.078125 202.527344 C 179.136719 205.089844 179.417969 207.585938 179.710938 208.660156 C 181.007812 202.984375 182.726562 201.777344 183.667969 201.230469 C 182.121094 203.132812 181.472656 205.472656 181.21875 206.757812 C 182.132812 205.402344 183.164062 204.339844 184.214844 203.601562 C 185.207031 202.890625 186.210938 202.464844 187.152344 202.34375 C 188.121094 202.214844 189.023438 202.40625 189.75 202.933594 L 189.773438 202.953125 C 190.296875 203.347656 190.722656 203.902344 191.015625 204.652344 C 191.433594 204.054688 192.300781 202.910156 193.457031 201.972656 C 193.140625 200.886719 192.667969 200.191406 192.667969 200.191406 C 193.261719 200.613281 193.730469 201.070312 194.0625 201.515625 C 194.710938 201.082031 195.417969 200.726562 196.1875 200.5625 C 195.914062 200.816406 195.238281 201.292969 194.46875 202.101562 C 194.730469 202.539062 194.882812 202.910156 194.972656 203.175781 C 195.773438 202.539062 196.632812 202.03125 197.542969 201.707031 C 198.808594 201.253906 199.921875 201.253906 200.804688 201.605469 L 200.914062 201.65625 C 202.28125 199.480469 203.230469 196.839844 203.65625 194.085938 C 204.042969 191.636719 204.023438 189.097656 203.515625 186.699219 L 202.039062 188.277344 C 201.773438 189.96875 200.804688 193.003906 198.902344 194.726562 C 200.023438 192.40625 200.84375 190.101562 201.097656 187.8125 C 201.308594 185.890625 201.105469 183.96875 200.335938 182.0625 C 200.195312 182.359375 200.054688 182.640625 199.902344 182.933594 C 199.589844 183.523438 199.253906 184.097656 198.902344 184.683594 C 198.617188 186.6875 197.796875 189.371094 196.007812 191.050781 C 197.636719 187.824219 198.121094 185.058594 198.019531 182.832031 C 197.898438 180.109375 196.9375 178.199219 196.1875 177.207031 C 196.167969 177.308594 196.148438 177.410156 196.128906 177.5 C 195.8125 178.917969 195.054688 180.292969 193.980469 181.324219 C 192.898438 182.367188 191.503906 183.054688 189.945312 183.054688 C 189.832031 183.054688 189.722656 183.054688 189.609375 183.046875 C 189.84375 183.5625 190.125 184.078125 190.460938 184.574219 C 191.371094 184.535156 193.617188 184.210938 195.144531 182.113281 C 194.871094 184.421875 192.898438 185.503906 191.390625 185.726562 C 191.613281 185.960938 191.847656 186.171875 192.109375 186.375 C 192.746094 186.882812 193.496094 187.328125 194.386719 187.652344 C 193.121094 187.851562 190.417969 186.253906 189.703125 185.230469 C 188.285156 183.199219 187.777344 180.859375 187.433594 179.292969 L 187.375 179.007812 C 187.03125 179.179688 186.613281 179.292969 186.199219 179.3125 C 185.746094 179.332031 185.277344 179.25 184.855469 179.019531 C 184.316406 178.722656 183.863281 178.199219 183.640625 177.359375 C 183.476562 176.75 183.457031 176.082031 183.558594 175.464844 C 183.660156 174.828125 183.902344 174.230469 184.246094 173.785156 C 184.296875 173.714844 184.347656 173.65625 184.378906 173.613281 C 185.339844 172.390625 186.523438 172.015625 187.75 172.144531 C 188.769531 172.257812 189.8125 172.734375 190.773438 173.371094 L 190.773438 173.351562 C 190.5 171.277344 189.429688 169.109375 187.871094 167.449219 C 186.320312 165.8125 184.308594 164.675781 182.132812 164.667969 C 181.847656 164.667969 181.554688 164.6875 181.261719 164.71875 C 182.839844 164.019531 184.519531 164.242188 186.066406 165.03125 C 185.773438 164.800781 185.472656 164.585938 185.148438 164.40625 C 184.144531 163.828125 183 163.492188 181.867188 163.515625 C 180.746094 163.535156 179.621094 163.898438 178.621094 164.707031 C 177.476562 165.640625 176.496094 167.167969 175.867188 169.453125 C 175.238281 171.761719 175.453125 173.625 175.675781 175.496094 C 176.019531 178.402344 176.363281 181.324219 173.792969 185.941406 C 174.480469 183.925781 174.855469 182.113281 174.914062 179.9375 C 174.105469 181.46875 172.851562 182.902344 171.605469 184.320312 C 168.761719 187.882812 167.355469 193.449219 168.164062 197.476562 C 166.738281 194.289062 166.878906 192.488281 166.878906 192.46875 Z M 178.609375 210.371094 C 177.953125 208.832031 176.394531 207.082031 174.550781 205.765625 C 172.636719 204.398438 170.441406 203.519531 168.722656 203.902344 C 168.582031 203.933594 168.4375 203.976562 168.308594 204.023438 C 168.023438 204.125 167.78125 204.269531 167.578125 204.429688 C 166.972656 204.925781 166.6875 205.683594 166.636719 206.554688 C 166.578125 207.464844 166.769531 208.476562 167.113281 209.417969 C 167.386719 210.167969 167.75 210.855469 168.164062 211.414062 C 168.316406 211.402344 168.46875 211.394531 168.609375 211.382812 C 166.890625 208.691406 167.265625 206.867188 167.527344 206 C 167.71875 209.601562 170.300781 211.382812 170.625 211.839844 C 171.324219 211.433594 172.851562 211.453125 173.386719 211.320312 C 172.789062 211.191406 171.941406 210.726562 171.585938 210.007812 C 172.738281 210.683594 174.308594 210.855469 175.753906 210.632812 C 176.28125 210.554688 176.777344 210.492188 177.253906 210.453125 C 176.890625 208.824219 174.703125 207.222656 174.703125 207.222656 C 176.636719 207.902344 178.074219 209.722656 178.539062 210.382812 L 178.609375 210.382812 Z M 193.738281 204.296875 C 193.769531 203.84375 193.75 203.398438 193.6875 202.992188 C 192.867188 204.035156 192.027344 205.441406 191.484375 207.3125 C 191.898438 206.617188 192.363281 205.9375 192.867188 205.300781 C 193.140625 204.957031 193.4375 204.621094 193.738281 204.296875 Z M 200.359375 203.539062 C 200.359375 203.539062 202.859375 205.582031 199.152344 209.996094 C 200.570312 209.308594 201.652344 207.457031 201.714844 205.886719 C 201.734375 205.359375 201.644531 204.804688 201.359375 204.339844 C 201.136719 203.964844 200.792969 203.691406 200.359375 203.53125 Z M 188.800781 210.453125 C 189.175781 210.542969 189.539062 210.390625 189.75 210.078125 C 190.085938 209.5625 190.347656 209.046875 190.511719 208.519531 C 190.792969 207.609375 190.816406 206.636719 190.5 205.460938 C 190.257812 204.570312 189.851562 203.933594 189.328125 203.550781 L 189.304688 203.539062 C 188.738281 203.125 188.03125 202.984375 187.253906 203.085938 C 186.433594 203.195312 185.542969 203.578125 184.652344 204.207031 C 182.949219 205.410156 181.292969 207.515625 180.1875 210.390625 C 180.550781 210.410156 180.925781 210.429688 181.3125 210.460938 C 181.765625 208.773438 182.476562 207.933594 183.214844 207.183594 C 182.628906 208.316406 182.503906 209.035156 182.363281 210.109375 C 182.242188 211.171875 183.984375 210.085938 184.4375 209.996094 C 185.238281 209.824219 186.167969 209.792969 186.917969 208.449219 C 187.082031 208.832031 186.96875 209.492188 186.777344 209.9375 C 187.777344 210.601562 188.660156 209.671875 189.003906 209.316406 C 189.035156 209.539062 188.902344 209.914062 188.546875 210.390625 C 188.636719 210.410156 188.71875 210.429688 188.800781 210.453125 Z M 200.257812 210.1875 C 201.59375 208.507812 202.210938 206.839844 202.261719 205.441406 C 202.289062 204.664062 202.140625 203.976562 201.835938 203.429688 C 201.542969 202.902344 201.097656 202.496094 200.539062 202.273438 C 199.820312 201.992188 198.890625 201.992188 197.808594 202.386719 C 196.148438 202.984375 194.671875 204.238281 193.445312 205.757812 C 192.484375 206.949219 191.683594 208.316406 191.085938 209.671875 C 190.964844 209.957031 190.988281 210.25 191.148438 210.503906 C 191.308594 210.753906 191.574219 210.90625 191.878906 210.90625 C 193.789062 210.9375 194.328125 210.207031 194.894531 209.640625 C 194.921875 210.066406 194.761719 210.683594 194.375 211.199219 C 197.269531 211.199219 198.304688 210.90625 200.226562 210.199219 Z M 184.1875 167.59375 C 184.78125 167.59375 185.269531 168.078125 185.269531 168.675781 C 185.269531 169.273438 184.78125 169.757812 184.1875 169.757812 C 183.589844 169.757812 183.101562 169.273438 183.101562 168.675781 C 183.101562 168.078125 183.589844 167.59375 184.1875 167.59375 Z M 180.15625 162.773438 C 180.714844 162.601562 181.292969 162.523438 181.867188 162.511719 C 183.195312 162.492188 184.507812 162.867188 185.664062 163.523438 C 186.117188 163.785156 186.554688 164.089844 186.957031 164.445312 C 186.734375 163.65625 186.390625 162.835938 185.734375 162.136719 C 186.765625 162.289062 187.878906 163.886719 188.171875 165.203125 C 188.4375 166.378906 188.566406 167.167969 189.882812 166.621094 C 190.15625 166.507812 190.429688 166.359375 190.671875 166.175781 C 190.90625 166.003906 191.117188 165.8125 191.28125 165.597656 C 191.492188 165.324219 191.59375 165.03125 191.484375 164.777344 C 191.332031 164.414062 191.039062 163.980469 190.691406 163.542969 C 190.339844 163.089844 189.933594 162.625 189.570312 162.21875 C 188.527344 161.066406 185.523438 160.761719 185.511719 160.761719 C 186.039062 160.589844 186.625 160.527344 187.203125 160.558594 L 187.121094 159.578125 C 187.109375 159.457031 187.019531 159.304688 186.898438 159.171875 C 186.765625 159.03125 186.605469 158.917969 186.460938 158.890625 C 185.996094 158.796875 185.441406 158.777344 185.226562 158.765625 C 184.882812 158.917969 183.546875 159.558594 181.472656 161.125 C 181.636719 160.621094 182.039062 160.042969 182.546875 159.507812 C 181.210938 159.070312 179.894531 158.714844 178.992188 159.929688 C 178.699219 160.324219 178.921875 160.558594 179.207031 160.851562 C 179.652344 161.308594 180.15625 161.832031 180.167969 162.773438 Z M 186.949219 173.117188 C 186.3125 173.210938 185.703125 173.542969 185.175781 174.199219 C 185.125 174.261719 185.085938 174.3125 185.054688 174.351562 L 185.046875 174.363281 C 184.804688 174.675781 184.632812 175.121094 184.550781 175.597656 C 184.46875 176.082031 184.488281 176.597656 184.609375 177.066406 C 184.753906 177.613281 185.027344 177.933594 185.347656 178.117188 C 185.59375 178.25 185.886719 178.300781 186.160156 178.289062 C 186.453125 178.277344 186.734375 178.199219 186.96875 178.066406 C 187.230469 177.933594 187.414062 177.761719 187.445312 177.601562 C 187.496094 177.347656 187.382812 176.992188 187.242188 176.570312 C 186.957031 175.738281 186.605469 174.675781 186.9375 173.109375 Z M 186.949219 173.117188 " fill-opacity="1" fill-rule="nonzero"/></g><g clip-path="url(#75437c969b)"><path fill="#7ab730" d="M 168.699219 219.632812 C 167.132812 219.246094 165.636719 218.710938 164.21875 218.066406 C 164.199219 218.03125 164.183594 217.992188 164.144531 217.957031 L 164.125 217.9375 C 164.050781 215.394531 162.078125 212.738281 160.292969 211.078125 C 160.050781 210.859375 159.535156 210.988281 159.574219 211.375 C 159.832031 213.4375 160.660156 215.449219 162.0625 216.980469 C 159.664062 215.632812 157.507812 213.9375 155.535156 211.964844 C 155.570312 211.910156 155.589844 211.835938 155.589844 211.761719 C 155.609375 210.046875 155.367188 208.386719 154.777344 206.765625 C 154.355469 205.601562 153.800781 204.074219 152.660156 203.464844 C 152.398438 203.335938 152.085938 203.5 152.085938 203.796875 C 152.050781 205.804688 152.472656 207.816406 153.394531 209.585938 C 153.0625 209.199219 152.75 208.792969 152.4375 208.386719 C 150.445312 205.769531 148.65625 202.910156 147.199219 199.925781 C 147.21875 199.886719 147.238281 199.832031 147.21875 199.777344 C 147.199219 199.722656 147.199219 199.667969 147.183594 199.609375 C 147.238281 199.59375 147.3125 199.554688 147.347656 199.480469 C 149.191406 196.753906 148.898438 192.695312 148.066406 189.671875 C 147.976562 189.324219 147.515625 189.304688 147.328125 189.582031 C 145.632812 192.050781 145.613281 194.890625 146.167969 197.65625 C 145.191406 195.351562 144.433594 192.957031 143.957031 190.503906 C 143.753906 189.46875 143.605469 188.4375 143.53125 187.425781 C 143.585938 187.425781 143.660156 187.40625 143.714844 187.367188 C 146.425781 185.726562 147.9375 182.078125 148.363281 179.070312 C 148.417969 178.683594 147.992188 178.351562 147.660156 178.667969 C 145.78125 180.472656 144.304688 182.628906 143.441406 185.0625 C 143.496094 181.210938 144.398438 177.503906 145.910156 173.984375 C 145.964844 174.039062 146.058594 174.074219 146.148438 174.074219 C 149.320312 173.929688 152.328125 171.144531 153.929688 168.597656 C 154.113281 168.304688 153.800781 167.878906 153.46875 167.992188 C 151.164062 168.765625 149.042969 169.871094 147.164062 171.382812 C 148.898438 168.066406 151.109375 164.949219 153.582031 162.089844 L 153.597656 162.089844 C 155.164062 161.316406 156.992188 160.671875 158.261719 159.4375 C 159.351562 158.367188 159.941406 156.910156 160.511719 155.527344 C 160.695312 155.085938 160.144531 154.84375 159.8125 155.046875 C 159.773438 155.03125 159.757812 155.03125 159.703125 155.03125 C 158.28125 155.195312 157.027344 155.75 155.996094 156.746094 C 154.871094 157.851562 154.335938 159.34375 153.507812 160.652344 C 151.605469 162.699219 149.875 164.96875 148.363281 167.382812 C 148.804688 163.972656 149.375 160.320312 148.492188 156.964844 C 148.378906 156.558594 147.882812 156.558594 147.679688 156.855469 C 145.210938 160.320312 144.933594 165.261719 147.53125 168.746094 C 145.890625 171.585938 144.601562 174.628906 143.769531 177.726562 C 143.699219 176.398438 143.585938 175.089844 143.441406 173.78125 C 143.347656 172.914062 143.53125 171.179688 142.777344 170.574219 C 142.628906 170.441406 142.425781 170.40625 142.257812 170.5 C 139.402344 172.230469 140.636719 178.832031 143.109375 180.382812 C 143.125 180.398438 143.144531 180.398438 143.179688 180.398438 C 142.757812 182.796875 142.609375 185.210938 142.8125 187.644531 L 142.8125 187.664062 C 142.8125 187.699219 142.8125 187.738281 142.832031 187.773438 C 142.90625 188.640625 143.015625 189.488281 143.179688 190.355469 C 143.292969 190.964844 143.441406 191.554688 143.585938 192.144531 C 142.921875 191.019531 142.09375 189.894531 141.320312 188.917969 C 140.414062 187.773438 139.347656 186.871094 137.910156 186.484375 C 137.578125 186.390625 137.316406 186.6875 137.375 187.019531 C 138.074219 190.335938 140.582031 193.230469 143.902344 194.136719 C 143.992188 194.152344 144.066406 194.136719 144.121094 194.097656 C 145.136719 197.398438 146.609375 200.605469 148.378906 203.59375 C 147.660156 203.003906 146.90625 202.46875 146.09375 202.027344 C 145.007812 201.417969 143.476562 200.476562 142.203125 200.882812 C 141.984375 200.957031 141.816406 201.195312 141.890625 201.417969 C 142.980469 204.773438 146.40625 206.929688 149.875 205.992188 L 149.894531 205.992188 C 150.648438 207.132812 151.460938 208.238281 152.289062 209.289062 C 153.597656 210.96875 155.074219 212.589844 156.695312 214.046875 C 154.667969 213.015625 152.125 212.777344 150.003906 212.996094 C 149.652344 213.035156 149.433594 213.4375 149.707031 213.714844 C 152.011719 216.003906 155.515625 216.925781 158.59375 215.726562 C 158.632812 215.707031 158.652344 215.6875 158.667969 215.671875 C 161.601562 217.882812 164.9375 219.503906 168.625 220.023438 C 168.847656 220.09375 168.976562 219.707031 168.699219 219.632812 Z M 156.457031 157.554688 C 156.402344 157.667969 156.363281 157.757812 156.308594 157.867188 C 156.179688 157.980469 156.050781 158.089844 155.921875 158.21875 C 156.085938 157.980469 156.273438 157.757812 156.457031 157.554688 Z M 156.457031 157.554688 " fill-opacity="1" fill-rule="nonzero"/></g><g clip-path="url(#2c0d8797ec)"><path fill="#7ab730" d="M 198.289062 220.058594 C 201.976562 219.542969 205.316406 217.917969 208.246094 215.707031 C 208.265625 215.726562 208.300781 215.742188 208.320312 215.761719 C 211.398438 216.960938 214.902344 216.039062 217.207031 213.753906 C 217.484375 213.476562 217.261719 213.070312 216.914062 213.035156 C 214.8125 212.832031 212.25 213.070312 210.21875 214.085938 C 211.84375 212.628906 213.316406 211.023438 214.625 209.328125 C 215.457031 208.257812 216.25 207.152344 217.023438 206.027344 L 217.042969 206.027344 C 220.507812 206.949219 223.9375 204.8125 225.023438 201.453125 C 225.097656 201.214844 224.933594 200.992188 224.710938 200.921875 C 223.441406 200.496094 221.910156 201.4375 220.820312 202.0625 C 220.011719 202.523438 219.253906 203.039062 218.535156 203.628906 C 220.304688 200.625 221.78125 197.4375 222.792969 194.136719 C 222.851562 194.171875 222.921875 194.191406 223.015625 194.171875 C 226.335938 193.269531 228.84375 190.375 229.542969 187.054688 C 229.617188 186.742188 229.339844 186.445312 229.007812 186.519531 C 227.570312 186.890625 226.519531 187.792969 225.597656 188.953125 C 224.824219 189.929688 223.992188 191.054688 223.328125 192.179688 C 223.476562 191.589844 223.605469 190.984375 223.734375 190.390625 C 223.902344 189.527344 224.011719 188.679688 224.085938 187.8125 C 224.101562 187.773438 224.101562 187.738281 224.101562 187.699219 L 224.101562 187.683594 C 224.304688 185.265625 224.160156 182.832031 223.734375 180.4375 C 223.753906 180.4375 223.773438 180.417969 223.808594 180.417969 C 226.277344 178.867188 227.515625 172.269531 224.65625 170.535156 C 224.492188 170.425781 224.289062 170.480469 224.140625 170.609375 C 223.382812 171.234375 223.570312 172.949219 223.476562 173.816406 C 223.328125 175.125 223.21875 176.453125 223.144531 177.761719 C 222.316406 174.648438 221.007812 171.625 219.382812 168.785156 C 221.984375 165.300781 221.707031 160.359375 219.234375 156.875 C 219.03125 156.578125 218.515625 156.578125 218.425781 156.984375 C 217.539062 160.339844 218.109375 163.988281 218.554688 167.402344 C 217.042969 164.984375 215.308594 162.71875 213.390625 160.652344 C 212.578125 159.34375 212.046875 157.851562 210.902344 156.746094 C 209.871094 155.75 208.617188 155.195312 207.195312 155.03125 C 207.160156 155.03125 207.121094 155.03125 207.085938 155.046875 C 206.753906 154.84375 206.21875 155.085938 206.386719 155.527344 C 206.957031 156.910156 207.546875 158.367188 208.632812 159.4375 C 209.90625 160.671875 211.730469 161.316406 213.300781 162.089844 L 213.316406 162.089844 C 215.789062 164.949219 218 168.066406 219.734375 171.382812 C 217.851562 169.871094 215.734375 168.765625 213.429688 167.992188 C 213.078125 167.878906 212.78125 168.304688 212.96875 168.597656 C 214.554688 171.125 217.578125 173.929688 220.746094 174.074219 C 220.839844 174.074219 220.914062 174.039062 220.988281 173.984375 C 222.480469 177.503906 223.402344 181.210938 223.457031 185.0625 C 222.589844 182.628906 221.117188 180.472656 219.234375 178.667969 C 218.902344 178.351562 218.480469 178.683594 218.535156 179.070312 C 218.960938 182.078125 220.472656 185.726562 223.179688 187.367188 C 223.253906 187.40625 223.3125 187.425781 223.367188 187.425781 C 223.292969 188.4375 223.144531 189.46875 222.941406 190.503906 C 222.445312 192.9375 221.6875 195.332031 220.730469 197.65625 C 221.28125 194.871094 221.265625 192.050781 219.566406 189.582031 C 219.382812 189.304688 218.921875 189.324219 218.832031 189.671875 C 218 192.695312 217.707031 196.773438 219.550781 199.480469 C 219.605469 199.554688 219.660156 199.59375 219.714844 199.609375 C 219.695312 199.667969 219.695312 199.722656 219.679688 199.777344 C 219.660156 199.832031 219.679688 199.886719 219.695312 199.925781 C 218.242188 202.929688 216.433594 205.769531 214.460938 208.386719 C 214.148438 208.792969 213.832031 209.199219 213.5 209.585938 C 214.40625 207.816406 214.828125 205.804688 214.8125 203.796875 C 214.8125 203.5 214.496094 203.335938 214.238281 203.464844 C 213.113281 204.074219 212.5625 205.601562 212.117188 206.765625 C 211.527344 208.367188 211.289062 210.046875 211.308594 211.761719 C 211.308594 211.835938 211.328125 211.910156 211.363281 211.964844 C 209.410156 213.9375 207.234375 215.632812 204.835938 216.980469 C 206.238281 215.449219 207.085938 213.4375 207.324219 211.375 C 207.378906 210.988281 206.847656 210.859375 206.605469 211.078125 C 204.816406 212.738281 202.84375 215.394531 202.769531 217.9375 L 202.753906 217.957031 C 202.714844 217.992188 202.699219 218.03125 202.679688 218.066406 C 201.257812 218.710938 199.765625 219.230469 198.199219 219.632812 C 197.886719 219.707031 198.015625 220.09375 198.289062 220.058594 Z M 210.9375 158.199219 C 210.808594 158.089844 210.679688 157.980469 210.550781 157.851562 C 210.496094 157.738281 210.460938 157.648438 210.40625 157.554688 C 210.589844 157.757812 210.773438 157.980469 210.9375 158.199219 Z M 210.9375 158.199219 " fill-opacity="1" fill-rule="nonzero"/></g><g fill="#7ab730" fill-opacity="1"><g transform="translate(156.862934, 230.856299)"><g><path d="M 6.84375 -0.96875 C 6.09375 -0.34375 5.238281 -0.03125 4.28125 -0.03125 C 3.195312 -0.03125 2.273438 -0.414062 1.515625 -1.1875 C 0.742188 -1.957031 0.359375 -2.882812 0.359375 -3.96875 C 0.359375 -5.0625 0.742188 -5.992188 1.515625 -6.765625 C 2.273438 -7.535156 3.195312 -7.921875 4.28125 -7.921875 C 5.25 -7.921875 6.101562 -7.601562 6.84375 -6.96875 L 5.671875 -5.8125 C 5.265625 -6.113281 4.800781 -6.265625 4.28125 -6.265625 C 3.65625 -6.265625 3.117188 -6.039062 2.671875 -5.59375 C 2.222656 -5.144531 2 -4.601562 2 -3.96875 C 2 -3.34375 2.222656 -2.804688 2.671875 -2.359375 C 3.117188 -1.910156 3.65625 -1.6875 4.28125 -1.6875 C 4.800781 -1.6875 5.265625 -1.835938 5.671875 -2.140625 Z M 6.84375 -0.96875 "/></g></g></g><g fill="#7ab730" fill-opacity="1"><g transform="translate(164.883717, 230.856299)"><g><path d="M 4.5 -7.65625 L 6.34375 -7.65625 L 6.34375 0 L 4.5 0 L 4.5 -3 L 2.1875 -3 L 2.1875 0 L 0.359375 0 L 0.359375 -7.65625 L 2.1875 -7.65625 L 2.1875 -4.65625 L 4.5 -4.65625 Z M 4.5 -7.65625 "/></g></g></g><g fill="#7ab730" fill-opacity="1"><g transform="translate(172.044751, 230.856299)"><g><path d="M 0.171875 -7.65625 L 2.015625 -7.65625 L 2.015625 0 L 0.171875 0 Z M 0.171875 -7.65625 "/></g></g></g><g fill="#7ab730" fill-opacity="1"><g transform="translate(174.706816, 230.856299)"><g><path d="M 8.5 -7.65625 L 8.5 0 L 6.671875 0 L 6.671875 -4.28125 L 4.390625 -2.84375 L 2.1875 -4.28125 L 2.1875 0 L 0.359375 0 L 0.359375 -7.65625 L 4.421875 -5.03125 Z M 8.5 -7.65625 "/></g></g></g><g fill="#7ab730" fill-opacity="1"><g transform="translate(184.034892, 230.856299)"><g><path d="M 6.234375 0 L 5.671875 -1.078125 L 2.796875 -1.078125 L 2.234375 0 L 0.125 0 L 4.234375 -7.65625 L 8.359375 0 Z M 4.9375 -2.515625 L 4.234375 -3.859375 L 3.53125 -2.515625 Z M 4.9375 -2.515625 "/></g></g></g><g fill="#7ab730" fill-opacity="1"><g transform="translate(192.974315, 230.856299)"><g/></g></g><g fill="#7ab730" fill-opacity="1"><g transform="translate(196.507915, 230.856299)"><g><path d="M 5.09375 -6.015625 L 2.1875 -6.015625 L 2.1875 -4.65625 L 4.34375 -4.65625 L 4.34375 -3 L 2.1875 -3 L 2.1875 0 L 0.359375 0 L 0.359375 -7.65625 L 5.09375 -7.65625 Z M 5.09375 -6.015625 "/></g></g></g><g fill="#7ab730" fill-opacity="1"><g transform="translate(202.420548, 230.856299)"><g><path d="M 6.84375 -0.96875 C 6.09375 -0.34375 5.238281 -0.03125 4.28125 -0.03125 C 3.195312 -0.03125 2.273438 -0.414062 1.515625 -1.1875 C 0.742188 -1.957031 0.359375 -2.882812 0.359375 -3.96875 C 0.359375 -5.0625 0.742188 -5.992188 1.515625 -6.765625 C 2.273438 -7.535156 3.195312 -7.921875 4.28125 -7.921875 C 5.25 -7.921875 6.101562 -7.601562 6.84375 -6.96875 L 5.671875 -5.8125 C 5.265625 -6.113281 4.800781 -6.265625 4.28125 -6.265625 C 3.65625 -6.265625 3.117188 -6.039062 2.671875 -5.59375 C 2.222656 -5.144531 2 -4.601562 2 -3.96875 C 2 -3.34375 2.222656 -2.804688 2.671875 -2.359375 C 3.117188 -1.910156 3.65625 -1.6875 4.28125 -1.6875 C 4.800781 -1.6875 5.265625 -1.835938 5.671875 -2.140625 Z M 6.84375 -0.96875 "/></g></g></g><g fill="#7ab730" fill-opacity="1"><g transform="translate(163.933568, 239.077613)"><g><path d="M 1.34375 -3.546875 L 1.34375 -2.265625 L 3.375 -2.265625 L 3.375 -1.609375 L 1.34375 -1.609375 L 1.34375 0 L 0.5625 0 L 0.5625 -4.203125 L 3.625 -4.203125 L 3.625 -3.546875 Z M 1.34375 -3.546875 "/></g></g></g><g fill="#7ab730" fill-opacity="1"><g transform="translate(171.9496, 239.077613)"><g><path d="M 3.28125 -0.96875 L 1.1875 -0.96875 L 0.78125 0 L -0.03125 0 L 1.859375 -4.203125 L 2.625 -4.203125 L 4.53125 0 L 3.703125 0 Z M 3.03125 -1.578125 L 2.234375 -3.421875 L 1.453125 -1.578125 Z M 3.03125 -1.578125 "/></g></g></g><g fill="#7ab730" fill-opacity="1"><g transform="translate(180.637637, 239.077613)"><g><path d="M 3.3125 0 L 2.453125 -1.234375 C 2.421875 -1.222656 2.367188 -1.21875 2.296875 -1.21875 L 1.34375 -1.21875 L 1.34375 0 L 0.5625 0 L 0.5625 -4.203125 L 2.296875 -4.203125 C 2.660156 -4.203125 2.972656 -4.140625 3.234375 -4.015625 C 3.503906 -3.898438 3.710938 -3.726562 3.859375 -3.5 C 4.003906 -3.28125 4.078125 -3.015625 4.078125 -2.703125 C 4.078125 -2.390625 4 -2.117188 3.84375 -1.890625 C 3.695312 -1.660156 3.476562 -1.488281 3.1875 -1.375 L 4.15625 0 Z M 3.296875 -2.703125 C 3.296875 -2.972656 3.207031 -3.179688 3.03125 -3.328125 C 2.851562 -3.472656 2.59375 -3.546875 2.25 -3.546875 L 1.34375 -3.546875 L 1.34375 -1.859375 L 2.25 -1.859375 C 2.59375 -1.859375 2.851562 -1.929688 3.03125 -2.078125 C 3.207031 -2.222656 3.296875 -2.429688 3.296875 -2.703125 Z M 3.296875 -2.703125 "/></g></g></g><g fill="#7ab730" fill-opacity="1"><g transform="translate(189.217673, 239.077613)"><g><path d="M 4.421875 0 L 4.421875 -2.78125 L 3.03125 -0.484375 L 2.6875 -0.484375 L 1.3125 -2.75 L 1.3125 0 L 0.5625 0 L 0.5625 -4.203125 L 1.203125 -4.203125 L 2.875 -1.421875 L 4.515625 -4.203125 L 5.15625 -4.203125 L 5.15625 0 Z M 4.421875 0 "/></g></g></g><g fill="#7ab730" fill-opacity="1"><g transform="translate(199.141718, 239.077613)"><g><path d="M 1.859375 0.0625 C 1.535156 0.0625 1.222656 0.015625 0.921875 -0.078125 C 0.617188 -0.171875 0.378906 -0.289062 0.203125 -0.4375 L 0.484375 -1.046875 C 0.648438 -0.910156 0.859375 -0.800781 1.109375 -0.71875 C 1.359375 -0.632812 1.609375 -0.59375 1.859375 -0.59375 C 2.171875 -0.59375 2.40625 -0.640625 2.5625 -0.734375 C 2.71875 -0.835938 2.796875 -0.972656 2.796875 -1.140625 C 2.796875 -1.253906 2.75 -1.347656 2.65625 -1.421875 C 2.570312 -1.503906 2.460938 -1.566406 2.328125 -1.609375 C 2.203125 -1.660156 2.023438 -1.710938 1.796875 -1.765625 C 1.472656 -1.835938 1.210938 -1.910156 1.015625 -1.984375 C 0.816406 -2.066406 0.644531 -2.1875 0.5 -2.34375 C 0.363281 -2.507812 0.296875 -2.726562 0.296875 -3 C 0.296875 -3.238281 0.359375 -3.453125 0.484375 -3.640625 C 0.609375 -3.828125 0.796875 -3.976562 1.046875 -4.09375 C 1.304688 -4.207031 1.617188 -4.265625 1.984375 -4.265625 C 2.242188 -4.265625 2.5 -4.226562 2.75 -4.15625 C 3 -4.09375 3.210938 -4.003906 3.390625 -3.890625 L 3.140625 -3.28125 C 2.960938 -3.382812 2.769531 -3.460938 2.5625 -3.515625 C 2.363281 -3.578125 2.171875 -3.609375 1.984375 -3.609375 C 1.679688 -3.609375 1.453125 -3.554688 1.296875 -3.453125 C 1.148438 -3.347656 1.078125 -3.210938 1.078125 -3.046875 C 1.078125 -2.921875 1.117188 -2.820312 1.203125 -2.75 C 1.285156 -2.675781 1.394531 -2.613281 1.53125 -2.5625 C 1.664062 -2.519531 1.84375 -2.472656 2.0625 -2.421875 C 2.375 -2.347656 2.628906 -2.269531 2.828125 -2.1875 C 3.035156 -2.113281 3.207031 -1.992188 3.34375 -1.828125 C 3.488281 -1.671875 3.5625 -1.457031 3.5625 -1.1875 C 3.5625 -0.957031 3.5 -0.75 3.375 -0.5625 C 3.25 -0.375 3.054688 -0.222656 2.796875 -0.109375 C 2.546875 0.00390625 2.234375 0.0625 1.859375 0.0625 Z M 1.859375 0.0625 "/></g></g></g></svg>